<svg id="Layer_3" enable-background="new 0 0 64 64" height="512" viewBox="0 0 64 64" width="512" xmlns="http://www.w3.org/2000/svg"><g><path d="m29 28c-2.206 0-4 1.794-4 4s1.794 4 4 4 4-1.794 4-4-1.794-4-4-4z"/><path d="m6.999 32c0-1.103-.897-2-2-2s-2 .897-2 2 .897 2 2 2c1.103-.001 2-.898 2-2z"/><path d="m15.035 33c-.023-.332-.035-.665-.035-1s.016-.668.04-1h-6.183c.083.321.142.652.142 1 0 .347-.058.679-.142 1z"/><path d="m52 14.999c1.654 0 3-1.346 3-3s-1.346-3-3-3-3 1.346-3 3 1.346 3 3 3z"/><path d="m56 38c-.058 0-.115-.005-.172-.015l-14.248-2.485c-.265-.046-.5-.197-.652-.419s-.209-.495-.157-.759c.151-.775.229-1.556.229-2.322 0-.99-.136-2.012-.405-3.038-.109-.419.063-.86.427-1.094l10.437-6.709c.161-.104.349-.159.541-.159 4.962 0 9-4.037 9-9 0-4.962-4.038-9-9-9-4.963 0-9 4.038-9 9 0 .192-.055.38-.159.541l-5.873 9.135c-.144.225-.373.382-.634.438-.258.058-.534.004-.756-.143-3.193-2.098-7.273-2.559-10.908-1.151-.404.159-.87.034-1.143-.308l-10.016-12.523c-.307-.138-.526-.422-.578-.759-.379-2.451-2.454-4.231-4.933-4.231-2.757 0-5 2.243-5 5 0 2.48 1.779 4.555 4.231 4.935.336.052.62.271.758.576l11.686 9.349c.21.168.344.415.371.683.026.269-.057.536-.23.742-1.816 2.158-2.816 4.899-2.816 7.716 0 2.643.855 5.159 2.473 7.273.168.22.238.499.192.772-.045.272-.202.514-.432.668l-6.729 4.486c-.066.044-.138.08-.212.107-1.97.718-3.292 2.604-3.292 4.694 0 2.757 2.243 5 5 5 2.09 0 3.976-1.323 4.693-3.292.027-.075.063-.146.107-.212l5.171-7.756c.251-.377.726-.536 1.155-.392 1.4.479 2.873.732 4.28.633l.23-.015c.018-.001.035-.001.053-.001.266 0 .522.106.71.296.201.203.306.481.288.766l-.647 10.364c-.014.226-.104.44-.256.608-.506.559-.784 1.27-.784 2.001 0 1.654 1.346 3 3 3s3-1.346 3-3c0-.731-.279-1.441-.784-2-.152-.168-.242-.382-.256-.608l-.715-11.438c-.026-.418.211-.808.594-.977 1.75-.773 3.311-1.972 4.512-3.466.31-.384.856-.485 1.282-.238l13.604 7.902c.043.019.086.042.126.067.795.495 1.707.758 2.637.758 2.757 0 5-2.243 5-5 0-2.758-2.243-5-5-5zm-4-31c2.757 0 5 2.243 5 5s-2.243 5-5 5-5-2.243-5-5c0-2.758 2.243-5 5-5zm-7 10h2v2h-2zm-2 4h2v2h-2zm-34.001-12.001h-1.999v-1.999h2v1.999zm4 3h-2v-2h2zm2.001 39h-2v-2h2zm5-5h-2v-2h2zm9-4c-5.514 0-10-4.486-10-10h2c0 4.411 3.588 8 8 8zm4 17h-2v-2h2zm-4-21c-3.309 0-6-2.691-6-6s2.691-6 6-6c3.308 0 6 2.691 6 6s-2.692 6-6 6zm8-6c0-4.411-3.589-7.999-8-7.999v-2c5.514 0 10 4.485 10 9.999zm2-8v-2h2v2zm17 21h-2v-2h2zm3-2h-2v-2h2z"/><path d="m31 3.999c0-.551-.449-.999-1-.999-.552 0-1 .448-1 1v14.012c.671 0 1.338.063 2 .158z"/><path d="m33 5h1.999v2h-1.999z"/><path d="m33 9h2v2h-2z"/><path d="m32.999 13h2v2h-2z"/><path d="m25 5h2v2h-2z"/><path d="m25 9h2v2h-2z"/><path d="m25 13h2v2h-2z"/><path d="m54 32.999v-2h-11.054c.026.335.054.67.054 1.001s-.038.666-.062 1h11.062z"/><path d="m36.876 43.547 4.31 6.034 1.627-1.163-4.36-6.104c-.493.451-1.026.856-1.577 1.233z"/><path d="m15.718 36.401-10.06 3.659.683 1.879 10.149-3.691c-.302-.598-.562-1.214-.772-1.847z"/><path d="m16.547 25.655-3.101-1.55-.894 1.789 3.207 1.604c.215-.634.485-1.246.788-1.843z"/></g></svg>